<svg width="225" height="49" viewBox="0 0 225 49" fill="none" xmlns="http://www.w3.org/2000/svg">
<path d="M92.6039 36.75H76.213V11.1024H80.2812V33.0945H92.6039V36.75Z" fill="#509594"/>
<path d="M97.1438 31.4829C97.1438 30.4085 97.432 29.4717 98.0085 28.6725C98.585 27.8601 99.3384 27.1854 100.269 26.6482C101.212 26.111 102.286 25.7114 103.492 25.4493C104.71 25.1742 105.948 25.0366 107.206 25.0366C107.901 25.0366 108.497 25.0497 108.995 25.0759C109.493 25.1021 109.997 25.1414 110.508 25.1938V24.4667C110.508 23.5102 110.135 22.7961 109.388 22.3245C108.654 21.8528 107.685 21.6169 106.479 21.6169C105.379 21.6169 104.258 21.7742 103.118 22.0886C101.979 22.39 100.898 22.8354 99.8756 23.425L98.2247 20.2412C99.4301 19.5468 100.721 19.0031 102.096 18.61C103.485 18.2038 104.946 18.0007 106.479 18.0007C107.475 18.0007 108.451 18.1121 109.407 18.3348C110.377 18.5576 111.242 18.9244 112.002 19.4354C112.775 19.9464 113.391 20.6146 113.849 21.4401C114.308 22.2524 114.537 23.2613 114.537 24.4667V36.75H110.508V34.0575C109.866 35.0533 108.916 35.8263 107.658 36.3766C106.414 36.9269 105.071 37.202 103.629 37.202C102.738 37.202 101.893 37.0776 101.094 36.8286C100.308 36.5928 99.6267 36.2325 99.0502 35.7477C98.4737 35.2629 98.0085 34.6667 97.6548 33.9592C97.3141 33.2386 97.1438 32.4132 97.1438 31.4829ZM104.671 33.5662C105.47 33.5662 106.217 33.4679 106.911 33.2714C107.619 33.0617 108.241 32.78 108.779 32.4263C109.316 32.0594 109.735 31.6205 110.036 31.1095C110.351 30.5985 110.508 30.0351 110.508 29.4193V28.7314C109.866 28.6266 109.263 28.5677 108.7 28.5546C108.137 28.5415 107.639 28.5349 107.206 28.5349C105.215 28.5349 103.708 28.797 102.686 29.321C101.677 29.8451 101.173 30.4937 101.173 31.2667C101.173 32.7997 102.339 33.5662 104.671 33.5662Z" fill="#509594"/>
<path d="M136.549 36.75H132.48V25.4493C132.48 24.0212 132.212 23.032 131.675 22.4817C131.137 21.9314 130.358 21.6562 129.336 21.6562C127.829 21.6562 126.598 22.2655 125.641 23.484C124.698 24.7025 124.226 26.3861 124.226 28.5349V36.75H120.158V18.4331H124.226V23.032C124.632 21.4466 125.386 20.215 126.486 19.3372C127.587 18.4462 128.943 18.0007 130.554 18.0007C132.428 18.0007 133.896 18.61 134.957 19.8285C136.018 21.047 136.549 22.9206 136.549 25.4493V36.75Z" fill="#509594"/>
<path d="M158.521 36.75H154.453V35.0598C153.667 35.7542 152.874 36.2849 152.075 36.6517C151.276 37.0186 150.365 37.202 149.343 37.202C148.164 37.202 147.07 36.9662 146.061 36.4945C145.052 36.0228 144.181 35.3677 143.447 34.5292C142.726 33.6775 142.156 32.6621 141.737 31.4829C141.331 30.3037 141.128 29.0131 141.128 27.6112C141.128 26.2224 141.331 24.9384 141.737 23.7592C142.156 22.5669 142.726 21.5514 143.447 20.7129C144.181 19.8612 145.052 19.1996 146.061 18.7279C147.07 18.2431 148.164 18.0007 149.343 18.0007C150.365 18.0007 151.276 18.1776 152.075 18.5314C152.874 18.872 153.667 19.3896 154.453 20.084V14.7776H150.915V11.1024H158.521V36.75ZM154.453 23.3071C153.968 22.7699 153.339 22.3638 152.566 22.0886C151.806 21.8004 151.079 21.6562 150.385 21.6562C148.852 21.6562 147.6 22.2065 146.631 23.3071C145.674 24.4077 145.196 25.8424 145.196 27.6112C145.196 29.38 145.674 30.8081 146.631 31.8956C147.6 32.9831 148.852 33.5269 150.385 33.5269C151.079 33.5269 151.806 33.3893 152.566 33.1141C153.339 32.8259 153.968 32.4132 154.453 31.876V23.3071Z" fill="#509594"/>
<path d="M174.774 16.0551H169.822V11.1024H174.774V16.0551ZM178.509 36.75H166.206V33.0945H170.254V22.1083H166.206V18.4331H174.322V33.0945H178.509V36.75Z" fill="#509594"/>
<path d="M202.466 36.75H198.398V25.4493C198.398 24.0212 198.129 23.032 197.592 22.4817C197.055 21.9314 196.275 21.6562 195.253 21.6562C193.746 21.6562 192.515 22.2655 191.558 23.484C190.615 24.7025 190.143 26.3861 190.143 28.5349V36.75H186.075V18.4331H190.143V23.032C190.549 21.4466 191.303 20.215 192.403 19.3372C193.504 18.4462 194.86 18.0007 196.472 18.0007C198.345 18.0007 199.813 18.61 200.874 19.8285C201.935 21.047 202.466 22.9206 202.466 25.4493V36.75Z" fill="#509594"/>
<path d="M224.438 36.5535C224.438 37.8113 224.222 38.9315 223.79 39.9142C223.357 40.8969 222.748 41.7288 221.962 42.4102C221.189 43.0915 220.272 43.609 219.211 43.9628C218.162 44.3296 216.99 44.5131 215.693 44.5131C212.509 44.5131 209.79 43.55 207.536 41.624L209.463 38.4795C211.336 40.0911 213.413 40.8969 215.693 40.8969C217.095 40.8969 218.221 40.5496 219.073 39.8552C219.938 39.1739 220.37 38.0995 220.37 36.6321V34.6667C219.532 35.3874 218.726 35.9246 217.953 36.2783C217.18 36.619 216.282 36.7893 215.26 36.7893C214.081 36.7893 212.987 36.5404 211.978 36.0425C210.969 35.5446 210.098 34.8698 209.364 34.0182C208.644 33.1534 208.074 32.1511 207.654 31.0112C207.248 29.8713 207.045 28.6594 207.045 27.3754C207.045 26.0913 207.248 24.8794 207.654 23.7395C208.074 22.5865 208.644 21.5907 209.364 20.7522C210.098 19.9006 210.969 19.2323 211.978 18.7476C212.987 18.2497 214.081 18.0007 215.26 18.0007C216.282 18.0007 217.193 18.1776 217.992 18.5314C218.791 18.872 219.584 19.3896 220.37 20.084V18.4331H224.438V36.5535ZM220.37 23.3071C219.885 22.7699 219.256 22.3638 218.483 22.0886C217.723 21.8004 216.983 21.6562 216.263 21.6562C214.73 21.6562 213.485 22.1934 212.528 23.2678C211.585 24.3422 211.113 25.7114 211.113 27.3754C211.113 28.2008 211.238 28.9673 211.487 29.6748C211.749 30.3692 212.103 30.9719 212.548 31.4829C213.007 31.9939 213.55 32.4001 214.179 32.7014C214.821 32.9897 215.516 33.1338 216.263 33.1338C216.983 33.1338 217.723 32.9897 218.483 32.7014C219.256 32.4001 219.885 31.9808 220.37 31.4436V23.3071Z" fill="#509594"/>
<rect width="61.25" height="49" fill="#509594"/>
<path d="M29.75 30.9225L14.7175 15.9075L12.25 18.375L27.125 33.25H15.75V36.75H43.75V33.25H32.375L41.3875 24.2375C41.9881 24.4555 42.6291 24.5393 43.2655 24.483C43.9019 24.4267 44.5183 24.2317 45.0713 23.9117C45.6243 23.5918 46.1005 23.1545 46.4664 22.6308C46.8324 22.1071 47.0792 21.5096 47.1894 20.8802C47.2997 20.2509 47.2709 19.6051 47.1048 18.9881C46.9388 18.3712 46.6397 17.7981 46.2285 17.3091C45.8172 16.8201 45.3039 16.4272 44.7246 16.1578C44.1452 15.8884 43.5139 15.7493 42.875 15.75C41.7147 15.75 40.6019 16.2109 39.7814 17.0314C38.9609 17.8519 38.5 18.9647 38.5 20.125C38.5 20.7375 38.6225 21.2975 38.85 21.8225L29.75 30.9225Z" fill="white"/>
</svg>
